<svg xmlns="http://www.w3.org/2000/svg" viewBox="0 0 200 200"><rect width="200" height="200" rx="16" fill="#161618"/><path d="M114.864,47.369L114.147,47.423L112.056,47.611L112.972,48.949L113.291,49.483L113.35,50.255L113.191,51.716L112.753,52.932L112.235,53.934L111.24,54.933L112.753,55.903L111.738,57.209L111.26,57.73L110.702,57.626L109.707,57.183L107.317,56.086L106.182,55.667L105.167,55.536L104.609,55.562L102.459,54.618L102.041,54.723L101.264,55.143L101.165,56.033L101.225,58.302L101.344,60.039L101.045,61.046L100.767,61.715L99.89,63.537L97.959,62.306L96.625,61.484L95.769,62.589L93.638,64.559L92.543,68.466L92.464,68.592L91.827,69.574L90.99,70.027L90.373,70.253L89.995,71.405L90.851,73.027L91.289,73.897L91.707,75.285L91.627,76.149L91.528,76.692L90.612,77.823L88.661,80.732L86.849,83.761L86.112,84.629L86.451,87.17L85.833,87.91L84.619,88.744L83.982,89.077L83.305,89.243L81.234,89.575L81.612,92.27L81.752,93.445L81.752,94.148L81.533,94.826L81.274,96.133L80.895,100.713L80.597,101.218L80.179,102.455L78.865,105.392L77.809,107.336L76.296,110.121L77.53,110.992L78.665,111.639L78.904,112.618L79.044,114.235L79.024,115.339L78.586,116.329L78.247,117.032L78.008,117.361L76.415,117.032L74.365,116.593L73.827,116.593L72.632,116.9L71.557,117.536L70.98,118.083L70.84,118.28L70.124,119.502L68.849,121.652L68.133,122.603L68.352,123.896L67.177,126.361L67.933,128.852L67.973,128.937L68.371,129.932L67.953,130.566L67.774,130.904L67.834,132.041L67.953,133.321L67.854,134.053L67.814,134.868L68.849,138.541L68.849,139.386L68.79,139.942L68.471,142.176L68.033,145.188L68.79,145.978L69.865,146.907L70.462,147.27L71.358,148.376L72.035,149.459L71.955,150.18L71.756,150.958L71.458,151.516L71.199,152.272L71.079,152.828L70.96,152.967L69.765,153.027L69.128,153.245L68.81,153.482L68.909,154.728L69.626,157.03L70.243,158.654L70.422,159.727L70.223,160.796L70.024,161.339L70.024,162.094L69.865,163.561L69.387,164.292L68.79,165.099L68.113,165.693L67.575,165.866L67.117,165.942L66.798,166.248L66.52,167.146L66.261,168.08L65.405,169.219L65.425,169.618L65.763,170.979L66.062,172.505L65.803,173.932L65.584,175.445L65.206,176.433L64.648,176.786L64.25,176.6L63.792,175.24L63.772,174.923L63.672,174.512L62.378,174.1L62.139,174.119L61.642,173.875L61.343,173.8L60.726,173.651L60.228,172.449L59.67,171.432L59.611,171.017L59.611,169.106L59.451,168.27L59.412,167.337L59.073,168.08L59.252,169.276L58.834,169.769L58.316,170.015L58.356,170.715L58.575,170.847L58.635,171.564L58.496,172.618L57.46,174.979L57.241,175.222L57.102,175.539L56.564,175.334L55.887,175.986L55.25,176.079L55.011,175.352L54.095,174.362L53.657,174.418L54.055,174.904L54.434,175.539L54.215,175.949L53.996,176.209L53.637,176.358L52.303,177.176L52.761,177.714L52.363,178.344L51.905,178.436L51.646,178.714L51.567,179.102L50.193,180.227L47.943,183.07L46.768,183.873L45.972,184.711L45.255,184.674L44.359,185.383L42.089,186L40.596,185.728L39.54,185.964L38.983,185.492L38.903,185.147L38.943,184.965L39.043,184.729L38.844,184.638L38.425,184.601L38.246,184.838L38.226,185.365L38.027,185.51L37.251,185.201L37.052,184.929L37.33,184.383L37.828,183.873L37.729,183.782L37.629,183.471L37.41,183.435L36.713,183.508L36.136,183.417L34.284,182.283L33.866,181.678L32.372,180.723L31.695,179.692L31.317,178.566L31.357,177.529L31.536,175.911L31.835,175.501L33.189,176.079L34.543,177.027L34.742,176.972L35.18,176.228L35.996,175.632L35.757,175.464L34.543,176.154L34.085,175.762L33.368,174.979L33.368,174.586L33.707,174.175L33.806,173.632L33.647,173.107L33.726,172.411L34.264,171.658L35.08,170.904L35.678,170.167L36.295,169.712L36.215,169.561L35.538,169.845L34.861,170.337L34.085,171.168L33.129,171.828L32.432,172.073L32.094,172.299L31.576,172.505L31.038,173.444L30.461,173.838L29.406,173.894L29.187,173.2L29.485,170.734L29.804,169.523L30.142,168.669L30.68,168.536L31.078,167.889L31.397,167.889L31.656,168.194L32.731,168.479L33.249,167.661L33.945,167.546L35.18,166.745L35.16,166.592L34.324,166.764L33.806,166.802L33.069,166.993L32.671,166.86L32.492,166.248L32.791,165.693L33.965,164.388L34.383,163.811L34.602,163.272L34.563,162.905L34.762,162.152L35.917,160.815L36.852,160.193L37.151,160.737L36.892,162.365L36.892,163.041L37.649,160.66L37.967,160.077L38.346,159.688L39.242,159.415L39.501,159.025L38.445,159.162L35.917,160.077L34.841,160.893L34.543,161.513L33.806,162.461L33.468,163.06L33.308,163.965L32.89,164.446L32.313,164.619L31.536,165.751L31.198,166.669L30.421,167.375L29.923,167.927L29.764,168.137L29.485,168.669L29.266,168.707L29.067,168.403L29.047,167.699L29.107,166.573L29.485,165.77L29.665,164.965L29.426,164.235L29.605,163.773L29.923,163.773L30.541,163.985L31.198,163.965L32.273,163.368L32.094,163.021L31.636,162.983L30.76,163.021L30.043,162.461L29.465,161.319L29.207,159.785L29.386,159.337L31.476,157.755L32.034,157.05L31.715,156.971L30.939,157.853L29.804,158.381L29.107,157.637L28.729,156.834L28.51,155.122L28.589,154.234L28.51,153.066L28.988,152.689L29.525,152.888L30.043,152.967L31.257,152.868L33.906,152.173L35.598,152.59L36.295,152.55L37.37,151.934L38.286,151.874L38.983,152.332L39.361,152.868L39.421,153.581L39.74,154.036L39.959,153.898L39.779,153.324L39.74,152.471L42.527,151.476L42.866,151.098L41.751,150.958L41.432,150.06L42.029,148.697L41.97,148.517L41.352,149.239L41.054,150.259L41.173,151.058L41.054,151.437L40.476,151.616L39.202,151.675L38.386,151.337L37.629,151.138L37.37,150.878L37.45,150.299L37.31,150.18L36.992,150.699L36.713,151.735L36.116,151.974L34.443,151.596L32.034,151.815L30.959,152.332L30.262,152.272L29.047,151.357L28.569,150.639L28.41,149.179L28.47,148.517L29.406,148.256L29.884,148.276L30.322,147.934L29.943,147.693L29.386,147.25L29.008,146.362L28.43,146.079L28.052,145.31L27.952,144.153L28.072,143.339L28.37,143.074L29.107,143.258L31.038,143.136L32.85,143.95L34.085,144.417L36.574,144.174L38.027,143.441L37.768,143.237L36.175,143.665L34.722,143.645L32.134,142.83L31.078,142.544L29.943,142.666L29.346,142.421L28.988,141.604L29.246,140.024L29.784,139.674L30.083,140.086L30.441,140.127L30.8,139.469L31.138,139.077L31.417,138.231L32.432,137.424L32.87,137.362L33.487,136.989L33.886,137.093L34.125,137.466L34.443,137.776L35.14,137.735L37.191,137.093L37.41,136.885L37.808,136.366L36.514,136.595L35.439,136.968L34.742,137.072L34.642,136.616L34.901,136.179L35.299,135.743L35.498,134.972L35.937,134.638L36.414,134.659L37.41,134.513L38.107,134.325L39.301,134.45L41.093,134.743L42.248,135.451L42.666,135.389L43.124,135.201L43.343,134.951L42.427,134.659L42.388,134.221L42.487,133.907L43.961,133.321L45.573,133.195L45.295,132.713L41.77,133.426L40.855,132.944L40.138,132.944L39.66,133.216L38.306,133.551L38.047,133.321L38.306,132.482L39.122,131.114L39.182,130.777L39.56,130.439L41.671,129.657L42.686,128.725L43.144,128.597L43.582,128.661L44.279,128.555L45.613,128.831L46.211,129.996L46.768,130.355L48.5,131.809L48.421,131.388L46.927,129.424L46.35,128.937L45.932,127.96L46.071,127.044L46.549,126.425L48.261,126.105L48.56,125.741L48.6,125.12L48.341,124.712L47.704,124.734L47.186,124.476L47.047,123.81L47.246,123.358L48.241,122.538L48.779,122.257L49.715,121.976L51.328,122.624L51.447,122.97L51.009,123.788L51.049,124.24L51.447,124.304L52.363,122.927L53.458,122.732L53.916,122.43L54.434,122.236L55.19,123.487L55.509,123.896L55.748,124.046L55.987,125.077L56.226,125.141L56.564,124.627L57.162,124.347L57.998,124.175L59.372,124.433L60.009,124.24L60.308,124.261L60.029,123.336L59.83,123.077L60.128,122.236L60.427,121.911L61.383,121.327L62.299,121.067L62.896,120.502L63.692,119.981L63.573,119.589L63.334,119.11L62.816,119.066L62.617,118.804L63.274,118.193L64.17,117.492L64.011,117.229L63.334,116.922L62.816,117.142L62.06,117.689L61.164,118.542L61.462,118.782L61.9,119.48L61.283,120.415L57.978,122.905L56.425,123.638L55.688,123.53L55.509,122.84L55.19,122.344L54.832,121.305L54.215,121.327L53.876,121.565L53.717,121.218L53.976,120.111L54.494,119.24L55.37,118.564L55.768,117.777L56.166,116.483L57.42,115.273L59.232,112.218L60.726,111.238L61.263,110.166L62.139,109.696L62.896,108.866L63.473,108.776L64.549,108.012L65.146,107.111L64.748,107.066L63.812,107.652L63.274,107.877L63.314,106.908L63.573,105.913L64.349,105.006L68.053,102.34L68.431,102.775L68.869,103.573L69.984,103.391L71.259,101.883L72.234,100.23L71.717,100.506L71.139,101.195L70.004,102.134L69.486,102.272L69.188,102.157L69.029,101.516L68.63,101.332L68.272,101.47L67.914,101.011L67.854,99.907L68.312,98.268L68.69,97.179L69.088,96.342L70.641,93.984L70.98,92.67L71.697,91.987L72.612,92.152L72.891,91.94L72.573,91.09L71.577,90.405L71.517,89.978L74.843,88.863L76.435,88.886L76.913,88.339L77.769,87.982L78.426,87.29L78.088,86.979L76.475,87.6L75.46,87.91L75.002,87.91L74.643,88.125L73.369,88.196L73.09,85.446L73.289,83.93L73.767,83.978L73.867,82.528L74.424,81.68L75.201,81.485L75.579,81.121L76.137,80.366L77.053,80.537L78.008,80.366L77.769,80.025L76.595,79.561L76.316,78.779L76.714,78.362L77.172,78.043L77.57,77.97L78.367,76.445L78.845,75.779L79.362,75.903L80.119,75.211L80.856,75.458L81.553,75.013L82.528,74.716L86.072,74.592L86.172,73.972L85.415,73.823L82.787,73.649L81.453,73.674L80.876,73.847L80.676,73.624L80.716,73.226L81.194,72.628L81.433,71.98L82.409,70.353L83.564,69.247L84.44,69.524L85.355,70.579L86.032,70.704L86.331,71.03L86.829,72.454L87.048,72.504L86.948,71.13L87.586,70.027L87.426,69.7L86.451,70.102L85.714,69.7L85.136,68.844L84.977,68.062L85.336,67.304L85.674,66.924L85.455,66.468L83.982,67.683L82.966,67.961L82.548,67.784L82.767,66.696L82.648,65.833L84.041,63.665L84.499,63.435L85.276,63.588L85.973,64.202L86.57,64.1L87.207,63.793L87.108,63.204L85.734,62.974L85.375,62.486L85.515,61.998L86.451,61.509L87.406,60.581L88.482,60.323L89.338,59.625L89.497,59.78L89.656,60.065L89.955,62.614L90.731,64.687L91.03,64.763L90.731,62.999L91.01,62.486L91.349,62.101L91.468,61.664L91.07,61.509L90.731,60.891L90.254,58.847L90.433,58.302L91.448,57.235L92.723,56.974L94.076,57.73L94.554,57.756L95.351,57.547L96.685,56.922L97.481,56.661L97.879,56.661L97.979,56.347L97.601,56.138L97.481,55.955L97.183,55.824L95.948,56.164L92.523,56.06L92.205,55.693L92.145,55.064L92.504,54.171L92.902,53.644L94.196,52.748L95.55,52.615L96.983,51L97.541,49.803L97.84,47.906L98.716,46.375L100.926,45.513L101.006,45.135L100.767,44.323L100.786,42.885L101.404,41.167L101.802,40.593L101.981,40.511L102.459,41.085L103.036,42.259L103.932,42.912L105.107,43.048L105.426,42.722L104.51,42.041L103.813,41.167L103.753,40.264L104.092,39.798L104.589,39.853L105.247,39.743L105.844,39.166L105.924,38.726L105.943,38.175L106.103,37.568L106.979,36.184L109.687,35.267L109.886,35.656L109.746,38.341L109.428,40.072L109.428,41.331L109.965,40.072L110.662,36.6L111.2,34.961L111.797,34.013L112.235,33.79L112.653,33.315L113.211,33.007L113.39,33.399L113.569,34.265L113.251,37.319L113.291,38.285L112.952,39.551L111.658,42.395L111.718,42.749L112.016,42.613L112.514,42.15L114.107,39.469L115.501,39.798L115.521,39.579L115.083,38.781L114.525,38.01L114.366,37.07L114.445,34.543L114.864,33.51L116.058,33.622L116.795,33.483L117.133,33.958L117.85,33.93L118.348,32.082L119.343,31.913L120.22,33.147L121.255,33.958L122.111,35.128L122.35,34.794L121.892,32.054L121.394,31.069L120.319,30.534L119.164,29.29L118.866,28.752L118.925,28.327L119.921,27.929L121.275,28.383L122.45,27.36L122.788,27.644L123.704,27.103L124.261,27.815L124.6,27.616L124.819,26.619L126.272,26.019L127.188,26.59L127.686,27.16L127.925,28.27L128.264,30.477L128.98,31.66L129.438,32.25L129.976,32.39L130.215,31.801L129.737,31.097L129.598,30.421L129.837,28.752L130.115,28.099L131.668,25.618L132.982,24.299L133.759,24.184L135.113,21.24L135.511,20.717L135.87,20.572L135.77,19.874L135.033,19.408L134.993,18.503L135.989,17.39L137.184,15.537L137.781,15.419L138.139,15.92L139.314,16.774L140.011,17.742L140.529,18.21L140.867,18.123L141.146,17.39L141.484,17.067L142.221,17.243L142.659,17.713L143.018,17.771L143.316,18.035L143.396,18.649L142.759,19.32L141.664,21.095L140.588,23.09L140.23,24.127L139.892,26.847L139.035,28.582L138.976,29.8L139.314,30.365L140.25,29.913L141.385,28.298L141.684,26.59L144.531,21.877L145.885,19.233L147.398,17.038L148.254,16.597L148.672,18.035L148.334,19.932L147.697,21.124L148.175,21.674L148.075,23.119L147.936,23.897L147.836,24.701L147.836,25.447L148.294,25.246L150.066,23.753L150.524,22.137L150.942,20.921L151.141,19.874L151.838,18.883L153.152,18.883L153.212,18.474L151.619,17.097L151.44,16.45L151.978,15.626L153.431,14L154.188,14.178L154.646,14.562L156.457,14.829L157.831,15.979L157.792,17.771L157.473,18.532L157.174,18.97L155.402,20.34L155.104,20.979L155.661,21.211L156.856,20.543L157.174,21.153L156.796,22.686L156.716,24.931L156.577,26.248L156.577,27.445L156.736,28.099L157.214,25.533L157.373,24.902L158.09,23.926L158.349,21.964L159.026,19.612L159.803,18.24L160.26,17.859L161.754,17.918L162.411,18.444L162.968,19.583L163.386,20.049L164.721,20.543L165.198,21.153L165.278,21.501L165.597,21.587L166.493,20.717L167.09,20.572L168.046,21.906L167.847,22.917L167.906,23.234L169.061,23.177L170.017,23.551L171.849,25.59L172.048,26.533L171.948,27.673L169.32,28.922L168.185,30.11L166.313,30.562L159.982,29.771L160.121,30.647L164.521,32.502L164.78,33.035L164.641,34.153L164.621,35.073L164.721,35.684L165.039,36.239L165.577,36.517L166.672,36.378L167.209,36.683L167.588,36.212L167.727,34.683L168.046,34.348L168.663,34.794L168.922,36.433L169.101,36.6L169.4,35.434L170.017,35.518L170.674,35.434L171.53,35.629L171.829,37.706L171.829,38.451L171.689,39.166L171.49,39.524L171.092,39.661L170.136,39.606L168.822,38.781L167.986,38.01L167.727,37.982L167.608,38.065L167.807,38.836L167.767,39.441L167.628,40.1L167.448,40.675L167.209,41.195L166.692,41.823L165.796,42.313L163.347,43.293L163.148,43.727L162.351,46.429L162.132,46.832L161.853,47.155L160.997,47.584L160.599,46.993L160.26,46.079L160.34,45.189L161.336,43.456L162.252,42.232L162.51,41.796L163.048,40.538L161.973,37.402L160.101,36.461L157.951,34.989L157.154,34.209L155.92,32.587L155.064,31.126L154.267,31.097L153.411,31.463L152.057,32.783L151.281,33.455L150.843,33.65L150.743,33.678L149.767,33.287L148.692,33.203L147.836,33.315L147.517,33.51L146.303,35.629L145.467,36.71L145.009,37.098L144.67,37.706L144.391,38.726L143.774,42.232L143.316,43.537L143.217,44.35L143.316,46.752L143.217,48.093L142.659,49.163L142.261,49.67L141.723,49.776L141.046,50.042L140.449,50.681L140.031,51.53L139.553,53.46L138.757,54.145L137.98,53.96L137.423,53.249L136.248,52.695L135.372,52.351L134.396,51.61L133.52,51.026L132.744,50.92L132.286,51.636L131.927,52.325L130.573,52.88L129.797,53.302L128.801,53.407L128.403,52.906L126.969,52.589L125.257,52.219L124.759,52.219L124.6,51.371L124.142,50.149L122.927,48.04L122.43,47.289L121.474,45.54L120.379,43.727L120.239,43.673L119.503,43.618L118.428,43.673L117.751,44.079L117.313,44.621L117.233,45.027L117.651,46.671L117.532,47.101L117.313,47.289L116.337,46.832L115.162,46.859ZM84.917,48.815L85.634,50.362L85.953,51.265L85.694,52.959L84.997,53.802L83.922,53.96L83.165,53.881L82.687,53.46L82.628,53.012L82.349,52.88L81.612,53.46L81.114,53.539L80.477,53.091L80.298,52.351L80.975,51.424L81.294,50.707L82.05,50.787L82.249,51L82.668,51.132L82.926,50.282L82.867,49.67L83.066,49.269L83.982,49.563L83.982,47.932L84.32,47.799L84.479,47.879L84.738,48.227ZM107.297,31.069L107.795,31.941L108.233,31.857L108.353,31.52L108.651,31.351L109.249,31.829L109.169,32.615L108.333,33.622L107.735,35.017L106.979,35.351L106.62,35.184L105.924,35.99L105.386,36.849L104.828,37.899L104.789,38.451L104.689,38.864L102.618,39.276L101.882,39.551L101.085,39.221L100.707,38.506L100.826,38.12L101.623,37.982L101.643,37.319L101.842,36.932L102.101,36.71L102.28,35.879L102.598,35.656L103.196,35.851L103.594,35.239L103.813,35.156L104.092,35.656L104.211,34.961L104.092,34.32L104.151,33.902L104.908,32.783L105.247,31.969L105.724,31.435L106.162,31.52L106.302,30.731L106.162,29.941L106.222,29.432L106.62,28.156L107.058,28.099L107.277,29.234ZM97.601,38.588L98.278,39.496L98.576,39.221L99.154,39.139L99.592,39.441L99.95,40.018L100.388,40.045L100.647,40.785L100.786,41.768L100.468,42.504L100.03,42.831L99.91,43.673L100.09,44.864L99.114,45.27L97.959,45.459L97.521,44.891L96.625,45.917L95.709,47.53L95.291,47.718L95.251,47.208L94.614,46.859L93.778,46.832L93.798,46.456L93.957,46.187L94.674,45.782L94.813,44.973L94.674,43.51L94.813,42.803L94.833,42.286L95.291,41.714L96.824,41.986L97.003,41.441L96.884,41.085L96.107,40.484L96.227,40.072L96.784,39.688L97.342,39.633L97.501,39.029L97.521,38.754ZM87.964,54.644L88.043,54.749L88.8,53.275L89.616,52.827L89.676,52.325L89.995,51.822L89.955,51L90.134,50.362L90.552,50.176L90.811,49.963L91.11,49.829L91.647,50.362L91.946,50.947L92.324,52.272L92.165,53.539L91.169,54.539L90.373,54.985L89.557,56.112L89.158,57.026L88.82,57.235L88.601,57.157L88.402,56.922L87.984,56.922L87.546,57.73L86.192,58.38L85.654,58.198L85.634,57.391L85.316,57.469L84.798,58.406L84.3,58.717L83.982,58.821L83.364,58.458L81.712,60.09L80.159,60.375L79.661,60.194L79.661,59.21L80.657,57.938L81.473,57.052L84.3,56.452L86.052,53.802L86.471,50.92L86.889,49.883L86.69,49.269L86.212,49.163L86.192,48.254L86.431,47.262L87.367,45.89L87.864,45.297L88.701,43.618L89.099,43.238L89.557,43.238L90.015,43.673L89.935,44.567L89.258,46.187L88.262,47.557L88.382,48.548L88.78,49.35L88.88,50.707L88.9,52.034L88.143,53.776Z" fill="#c6f432" stroke="#c6f432" stroke-width="0.6" stroke-linejoin="round"/></svg>
