<svg xmlns="http://www.w3.org/2000/svg" viewBox="0 0 200 200"><rect width="200" height="200" rx="16" fill="#161618"/><path d="M89.606,14L91.601,14.708L95.963,17.256L97.541,17.893L99.211,18.364L100.51,18.482L101.717,17.916L102.181,17.327L103.109,15.747L104.037,15.558L104.64,16.124L105.058,16.902L105.29,18.011L105.012,19.189L104.083,20.225L103.527,21.497L103.155,25.659L103.155,26.904L103.48,28.101L104.269,30.002L104.687,30.541L105.893,31.221L106.218,31.737L106.264,32.651L106.45,33.47L107.239,33.775L107.889,34.196L107.657,35.086L107.239,35.999L106.682,38.267L104.13,43.475L103.991,44.595L102.97,46.832L100.882,47.205L98.469,48.277L97.169,49.115L96.009,50.209L95.545,51.651L95.917,52.302L96.149,53L96.149,53.743L95.777,54.371L94.617,55.881L94.153,57.134L93.643,57.691L93.364,58.364L93.457,59.13L93.921,59.802L95.313,62.7L96.845,65.501L97.169,65.825L97.262,66.196L96.381,66.936L96.427,68.277L96.659,69.618L98.005,72.898L98.19,73.775L98.654,74.49L99.304,75.182L100.093,75.736L102.227,76.705L103.063,76.912L103.944,76.935L104.13,76.289L104.919,76.059L104.733,75.413L103.805,74.536L103.805,74.052L104.269,73.683L104.872,73.475L106.172,72.505L107.517,71.72L109.281,71.79L110.998,72.228L112.25,72.667L113.271,73.521L114.292,74.952L115.035,76.543L114.988,77.304L114.849,78.065L114.849,78.825L115.406,79.332L117.076,79.355L117.912,78.18L118.051,76.843L117.448,76.336L117.726,75.69L118.236,75.182L118.979,75.621L119.675,76.451L122.273,77.35L122.923,77.373L123.434,77.534L124.594,78.18L125.15,78.664L124.501,79.7L121.902,79.931L121.16,80.714L121.949,82.279L123.155,83.545L123.944,84.58L124.64,85.706L124.64,86.741L124.222,87.798L125.336,87.729L126.403,87.936L127.888,88.855L128.352,88.923L128.816,88.786L128.77,92.023L127.749,94.981L126.496,94.615L125.429,93.376L125.615,91.839L126.311,90.37L125.939,90.049L125.243,90.186L124.454,90.508L123.573,90.623L122.181,90.439L119.304,88.832L118.097,88.671L117.819,87.959L117.912,86.419L116.752,84.58L116.566,83.936L116.195,83.407L112.761,81.427L112.343,81.082L111.276,79.493L108.863,77.235L108.213,77.004L107.471,76.935L107.239,77.511L107.564,78.387L107.703,79.147L107.657,79.954L107.749,80.576L108.909,81.819L109.049,82.417L109.837,84.028L109.93,85.913L108.956,86.695L107.842,85.821L107.796,85.109L107.61,84.442L106.45,82.739L106.079,82.371L103.851,80.668L102.135,78.825L98.329,76.843L97.912,76.728L97.216,76.889L96.613,77.119L94.756,78.111L94.107,78.779L94.06,79.839L92.761,80.668L90.951,80.783L89.559,80.253L88.399,79.217L87.425,79.171L86.265,77.534L84.826,77.327L83.62,78.595L83.388,76.082L83.388,73.521L83.713,72.759L84.316,72.136L87.332,69.456L87.703,68.578L87.564,67.422L86.868,66.496L85.801,65.918L84.548,65.687L83.666,65.154L82.97,64.275L82.46,65.825L82.924,68.092L83.016,69.595L82.599,70.149L81.81,70.149L81.068,69.988L80.557,69.456L80.139,67.907L79.072,66.913L78.655,65.455L78.191,65.247L77.216,65.363L76.474,64.691L76.01,62.978L75.917,61.17L75.499,59.64L74.896,58.156L74.571,56.949L74.014,51.488L73.921,51L73.643,50.581L72.947,49.953L72.437,49.208L72.344,48.579L72.483,45.9L72.715,45.247L73.225,44.944L73.968,45.457L74.525,46.11L75.221,46.436L75.87,46.832L77.03,48.44L77.494,48.672L78.933,48.626L79.768,48.44L80.186,47.857L80.418,47.158L80.464,46.343L79.629,43.942L79.351,42.215L79.351,40.651L79.583,39.085L80.696,36.467L80.836,34.665L80.743,32.229L80.928,30.799L80.882,29.955L80.232,28.664L80.047,27.256L81.949,20.155L82.552,18.788L82.97,17.35L83.156,15.463L84.594,14.944L85.94,14.165L86.636,14.236L87.332,14.425L89.002,14.024ZM40.79,149.112L39.583,150.062L39.722,148.886L40.047,147.777L41.254,145.536L42.135,144.835L43.574,143.068L44.409,142.207L46.358,140.508L48.168,138.65L48.771,138.514L49.421,138.491L49.977,138.287L51.138,137.266L54.061,133.932L56.52,131.434L59.026,128.277L60.233,127.345L60.557,127.004L62.831,124.094L63.574,123.684L64.362,123.366L64.919,122.979L65.43,122.478L66.219,121.204L66.59,119.724L66.358,118.881L65.894,117.651L66.497,115.965L66.915,115.19L68.539,111.769L69.003,111.061L69.652,111.495L69.745,112.111L69.42,113.571L69.42,114.278L69.792,115.03L69.328,116.238L70.488,119.473L71.369,121.5L71.416,122.183L70.209,123.388L69.513,123.752L67.982,124.094L67.286,124.435L66.219,125.436L65.522,126.731L65.337,127.413L65.012,127.936L61.857,128.822L60.418,129.39L59.722,129.822L59.397,130.526L59.629,131.775L56.984,136.291L56.149,137.448L55.267,138.468L54.154,139.171L52.622,139.602L51.37,140.485L50.534,142.026L49.513,143.408L48.214,144.427L46.822,145.333L45.523,146.012L44.131,146.464L43.713,147.075L43.435,147.822L42.785,148.184L42.089,148.365ZM107.61,107.545L109.095,108.207L110.58,107.636L112.018,107.796L113.225,108.664L112.807,109.212L112.761,109.829L115.406,108.504L116.148,108.573L116.102,109.806L115.963,110.856L115.638,111.86L115.081,113.046L114.292,114.095L113.318,114.848L112.111,115.327L111.554,115.76L111.369,116.398L111.415,117.196L111.137,117.925L109.884,118.244L107.935,119.656L103.759,120.566L102.599,121.181L101.856,122L101.067,122.729L100.603,122.911L100.418,122.569L100.371,122.274L100.974,120.362L100.835,119.565L100.557,118.813L100.742,117.309L101.485,115.896L101.856,114.346L101.995,111.335L102.552,107.179L102.506,106.677L102.088,106.105L100.464,105.648L99.814,105.214L100.139,104.391L100.742,103.819L101.578,103.842L102.32,104.368L104.965,105.465L106.357,106.38ZM115.777,140.961L114.942,141.097L114.014,141.029L113.41,140.395L112.39,137.629L111.183,136.949L109.791,136.45L109.095,136.019L108.445,135.497L106.496,132.729L106.357,131.048L106.682,130.095L107.285,129.231L107.935,129.004L109.559,128.981L110.394,128.868L112.25,127.595L112.39,127.095L112.39,125.003L112.204,123.548L111.74,122.137L112.25,121.477L112.9,120.84L113.55,119.587L113.689,118.699L113.689,117.765L113.875,117.104L114.431,116.785L116.937,115.76L117.401,115.691L120.696,116.626L121.345,118.039L121.392,118.494L120.881,120.066L120.464,121.113L119.35,122.729L118.515,124.48L117.912,127.095L117.54,127.959L116.52,129.595L116.195,130.503L116.195,132.456L116.009,133.183L116.009,133.886L118.051,137.13L118.236,137.652L118.236,138.241L117.865,138.967L117.03,140.214L116.566,140.644ZM134.385,111.107L135.313,111.563L136.334,111.381L137.587,110.354L138.979,110.719L139.814,112.271L140.231,112.841L140.464,113.845L140.371,116.261L140.046,118.426L140.324,118.881L140.974,119.268L141.531,119.769L141.995,120.384L142.32,121.067L142.412,122.751L143.248,124.162L143.341,124.708L143.155,125.276L141.809,125.163L141.67,125.64L141.716,126.254L141.252,125.868L140.464,124.503L139.721,123.912L139.953,126.14L140.185,127.232L140.231,128.3L138.979,127.482L137.447,126.959L137.03,126.527L137.215,125.14L137.169,124.435L136.519,122.979L137.262,119.792L137.262,119.132L137.122,118.494L136.519,117.196L135.545,116.124L134.942,116.124L133.457,116.876L132.714,116.626L132.297,113.639L131.693,110.742L131.276,110.011L130.951,109.235L131.229,108.596L131.833,108.847L132.621,109.623L133.596,110.057L134.06,110.422ZM142.969,95.509L143.897,96.586L144.083,97.365L143.99,98.235L144.408,98.602L145.15,98.716L146.078,99.151L146.774,99.953L146.357,100.685L146.496,101.738L145.753,103.088L145.846,105.488L146.264,106.243L146.31,106.997L146.217,107.819L146.403,108.459L147.517,110.65L147.749,111.381L147.378,111.951L147.285,112.499L147.981,112.544L148.955,113.457L149.512,114.665L149.373,114.962L148.584,114.027L147.981,113.89L145.429,114.141L143.897,113.753L142.876,113.708L141.902,112.111L141.02,111.837L140.324,111.13L139.164,109.326L138.793,108.276L139.628,107.225L139.86,106.38L139.814,105.557L139.025,105.694L138.375,105.42L137.587,104.414L137.262,103.842L136.658,103.339L135.73,102.195L134.338,101.738L133.828,101.417L132.714,100.456L131.972,99.243L131.183,97.136L130.765,94.958L134.292,95.532L137.819,95.417L141.809,94.913ZM84.501,82.923L85.151,83.038L87.239,82.624L88.074,82.831L88.631,83.591L89.327,83.821L89.884,84.212L90.951,83.545L91.972,84.304L92.9,85.752L94.014,86.764L95.035,87.522L95.267,88.097L94.617,89.015L94.432,90.163L94.524,91.426L95.267,94.041L95.035,94.752L94.2,95.761L93.643,96.884L93.689,97.342L93.457,97.708L93.411,98.51L92.9,98.35L92.483,98.464L92.065,98.831L91.369,99.586L90.302,99.357L89.838,99.128L89.699,98.464L89.374,98.006L88.956,97.731L87.842,96.586L87.332,95.715L87.286,94.798L87.007,93.95L86.45,93.193L85.708,92.596L85.429,92.046L85.337,91.38L85.29,89.658L84.177,87.545L83.805,87.017L82.831,86.511L81.996,85.821L81.624,85.155L81.3,84.051L81.068,83.89L80.418,83.959L79.815,83.798L79.954,82.992L80.603,82.417L81.485,82.348L83.852,82.67ZM152.853,137.607L153.874,138.4L155.266,138.196L155.22,140.168L155.452,140.757L156.705,142.434L156.89,143.816L156.148,145.152L155.591,145.763L154.57,146.668L154.57,147.075L154.988,147.528L156.426,147.8L157.493,148.524L157.679,150.582L158.7,152.187L158.654,152.888L158.236,155.781L158.375,157.001L159.118,157.994L159.767,158.423L160.138,159.033L160.417,160.726L160.37,163.615L160.278,164.607L159.814,165.555L158.422,167.674L156.565,169.365L155.545,169.252L155.266,169.748L155.869,171.28L155.637,174.547L155.22,176.798L154.616,175.65L154.199,174.457L153.781,171.303L153.317,169.861L152.575,168.576L152.25,167.404L151.507,166.321L150.487,163.502L149.837,163.66L148.77,164.427L148.538,164.946L148.398,165.758L148.12,166.479L146.867,167.629L145.846,168.982L145.057,170.492L144.779,171.866L145.475,172.925L146.171,173.376L147.146,174.321L147.47,174.772L148.538,177.901L148.491,181.074L147.702,182.492L145.753,185.168L144.361,186L143.573,185.573L142.969,183.954L142.876,183.301L143.294,181.772L143.341,180.377L142.876,179.904L142.32,179.994L142.134,180.197L140.881,182.019L140.324,182.492L139.535,182.537L138.932,182.424L135.174,180.827L132.111,179.252L129.744,177.789L127.981,175.56L127.61,173.894L127.61,172.159L126.821,169.613L126.728,168.756L126.821,167.922L127.563,166.344L128.492,165.555L129.048,164.991L129.466,164.359L129.744,163.524L129.652,162.69L129.327,162.171L127.842,160.32L126.589,159.191L123.944,158.175L123.341,157.633L122.691,157.204L121.949,157.023L121.206,157.023L120.464,157.339L120.232,157.994L120.325,158.604L120.232,159.191L119.118,162.532L117.726,161.81L116.38,160.952L116.055,160.365L115.87,159.643L115.638,159.169L115.359,158.74L114.71,159.846L113.967,160.726L113.039,160.952L112.065,160.952L111.74,160.568L111.415,158.446L110.394,157.769L109.141,157.927L107.61,159.101L107.332,159.53L107.007,160.546L105.336,163.412L104.455,165.622L103.48,167.787L103.063,168.486L102.459,168.959L101.578,168.756L100.742,168.238L99.954,166.863L100.232,165.239L101.114,164.224L101.81,163.118L102.691,159.259L102.738,157.881L102.923,157.294L104.362,155.555L105.568,154.47L106.172,154.244L108.817,153.611L109.884,153.092L111.554,153.092L112.946,152.798L114.06,151.961L114.153,151.102L114.06,150.198L114.339,149.655L114.756,149.18L115.313,148.569L116.009,148.116L117.865,147.777L118.515,147.392L118.979,146.804L119.721,145.672L120.51,145.944L121.345,146.397L122.877,146.759L124.176,147.709L125.058,149.202L125.197,149.926L125.429,152.368L125.104,152.933L123.805,154.086L124.408,154.199L126.079,153.159L126.96,152.753L129.048,152.21L129.559,151.848L129.884,151.306L130.626,149.813L131.183,148.207L131.601,147.551L132.204,147.03L132.807,146.94L134.988,148.026L136.426,147.505L136.798,145.853L137.122,143.453L137.401,142.796L138.19,142.162L139.164,142.366L140.464,143.227L141.716,143.521L142.134,142.819L142.598,141.437L143.062,141.46L144.733,141.913L146.31,141.618L146.774,139.964L146.45,138.196L145.197,133.069L145.939,131.911L146.589,131.889L148.166,133.251L151.183,135.089L152.204,136.223ZM118.886,135.928L118.376,136.268L118.19,135.406L118.329,134.249L119.304,130.185L119.072,129.163L120.742,126.891L121.763,124.776L123.248,122.524L123.48,121.363L124.826,119.155L126.079,116.102L126.032,115.076L126.357,114.574L126.543,113.822L126.543,113.16L127.471,112.02L127.749,112.773L127.471,114.232L127.517,114.916L127.656,115.235L127.656,116.603L127.331,118.676L127.656,121.067L127.053,123.502L126.357,124.594L125.383,125.367L124.269,125.845L123.109,127.05L122.413,128.459L122.273,129.754L120.464,134.113ZM90.395,179.837L91.091,180.759L91.972,180.512L93.364,180.782L93.643,181.277L93.596,181.592L92.111,182.492L91.137,181.547L89.374,182.199L88.538,181.817L87.425,182.154L86.729,181.412L87.007,180.714L88.817,179.567ZM74.339,122.365L72.761,122.774L72.39,121.5L73.504,120.339L74.803,120.817L75.546,121.272L75.174,121.682ZM76.706,100.25L77.402,100.456L77.912,100.273L78.376,99.563L78.794,100.594L79.815,101.44L79.49,102.31L78.562,102.401L77.68,102.218L76.706,102.561L75.546,102.356L74.896,101.555L74.107,100.113L73.689,99.838L73.736,99.243L74.014,98.876L73.875,98.785L73.968,98.51L74.107,98.327L74.339,98.258L74.942,98.899L76.427,99.861ZM75.917,106.38L74.942,106.814L74.71,106.54L74.571,105.9L74.571,105.443L73.643,103.065L74.339,102.722L74.85,102.996L75.406,103.362L75.87,103.568L76.334,104.3L76.242,104.825L76.381,105.328ZM109.559,122.547L109.234,122.729L108.909,122.683L108.167,123.161L107.889,122.274L108.121,120.771L109.281,119.633L109.559,119.268L109.884,119.041L110.255,119.018L110.626,119.473L110.719,120.157L109.977,122.205ZM134.663,131.525L134.524,132.002L133.503,131.957L133.132,132.025L132.204,133.251L131.647,133.568L128.584,133.977L126.171,133.659L125.336,132.978L124.779,131.866L124.64,131.117L125.243,130.322L125.8,129.777L127.749,128.731L128.213,127.936L129.234,126.959L131.322,126.641L131.508,126.891L131.786,127.027L132.204,127.072L133.271,127.868L134.431,128.391L134.153,130.322L134.478,130.958ZM102.413,175.245L101.114,175.425L100.696,175.425L99.675,174.096L99.582,173.511L98.747,172.857L99.026,172.204L100.093,172.046L101.949,171.19L104.919,172.52L105.383,172.993L104.455,173.285L103.805,174.547ZM153.549,131.798L153.364,131.866L152.668,130.844L152.76,129.686L153.735,127.959L154.431,129.481L154.431,130.163L154.338,130.503L154.988,131.344L154.524,131.775ZM148.77,129.845L148.538,130.208L148.259,129.458L147.47,128.754L146.774,127.55L146.264,127.186L146.589,126.231L146.635,124.685L147.378,123.98L147.702,123.752L148.213,123.002L148.491,122.956L148.723,123.593L148.213,125.526L148.955,127.8L148.677,129.209L148.816,129.527ZM100.093,82.118L100.928,82.141L101.16,82.026L102.691,83.131L102.599,83.683L102.784,84.442L101.903,85.706L101.763,86.143L101.253,86.557L99.629,85.546L99.026,84.925L98.84,83.637L99.49,81.773ZM102.413,97.8L101.392,101.074L100.696,99.953L100.974,99.243L100.371,98.647L100.232,98.098L100.464,97.388L101.067,96.723L101.206,94.569L102.552,93.881L103.063,93.858L102.877,94.385L102.923,95.371ZM109.652,98.396L109.002,98.693L107.657,97.411L106.868,96.815L106.682,96.471L107.285,95.99L109.002,95.99L109.884,96.884L110.023,97.434ZM117.726,91.196L118.84,93.216L117.633,91.839L116.241,90.898L114.803,89.36L113.735,88.809L113.457,88.487L113.55,87.844L114.339,87.729L114.663,87.775L116.752,90.508ZM123.341,98.67L125.8,100.25L127.517,102.905L127.703,104.94L127.563,105.74L126.775,104.848L125.011,103.614L123.805,103.339L123.434,103.11L123.573,102.424L122.784,101.806L122.691,101.555L121.995,101.28L120.928,99.884L120.185,99.609L119.489,99.907L117.865,101.989L116.148,103.453L116.102,102.882L116.798,101.074L117.262,98.144L117.54,97.25L117.169,95.944L117.123,94.775L118.422,95.325L120.046,95.852L121.299,96.609L121.485,97.113ZM131.554,80.898L131.183,81.75L130.765,81.45L130.208,81.496L129.234,82.233L127.703,81.243L127.471,80.483L128.584,78.802L128.584,76.289L128.956,75.667L129.373,75.229L129.884,74.975L130.951,76.705L131.322,76.935L132.343,77.719L132.111,79.332L132.204,80.276ZM101.624,62.63L101.856,63.093L101.624,63.07L101.438,63.163L100.835,64.112L101.485,65.895L101.067,67.19L100.325,67.283L100.046,67.144L100.186,66.496L100.371,66.219L100.232,65.363L99.768,64.83L99.443,63.811L98.886,63.186L99.165,62.19L100.835,62.074ZM134.849,109.144L133.225,109.235L132.529,108.641L131.647,106.859L132.621,106.494L133.596,106.585L134.292,107.202L134.988,108.39Z" fill="#c6f432" stroke="#c6f432" stroke-width="0.6" stroke-linejoin="round"/></svg>
