<svg xmlns="http://www.w3.org/2000/svg" viewBox="0 0 200 200"><rect width="200" height="200" rx="16" fill="#161618"/><path d="M181.709,103.804L183.025,104.385L184.391,103.865L185.122,104.018L185.854,104.293L186,105.425L185.366,106.677L184.488,107.928L183.708,109.3L183.074,110.883L181.855,111.826L180.733,112.373L178.392,111.218L177.027,110.914L176.637,110.488L176.295,108.721L175.71,108.172L174.784,107.928L174.003,108.355L172.979,109.3L172.394,108.355L171.565,108.203L171.224,107.623L171.224,106.921L176.832,102.671L178.441,101.721L181.904,100.617L182.44,100.77L182.001,101.445L182.001,101.721L182.44,102.027L182.343,102.548L181.904,102.977ZM114.801,38.241L114.849,38.888L115.337,39.794L115.922,40.117L117.093,40.569L117.971,40.634L119.19,40.86L120.019,41.377L120.067,42.151L119.824,43.054L119.336,43.859L119.043,44.503L119.336,44.857L119.775,45.147L120.214,45.211L120.555,45.115L120.799,44.632L121.238,44.02L121.482,43.956L121.482,44.278L121.677,44.697L123.189,45.437L126.456,46.755L127.724,46.787L128.797,46.947L129.089,47.493L131.186,49.546L131.674,49.482L132.601,49.514L133.722,49.354L134.502,48.969L135.039,49.033L135.624,49.45L136.307,49.771L137.233,50.443L138.014,51.276L138.55,51.564L141.817,50.988L142.549,51.5L143.329,51.5L144.207,51.372L146.109,51.628L147.669,51.564L147.816,51.34L147.962,49.514L148.206,48.841L148.547,48.681L149.474,48.809L152.79,49.899L154.155,50.571L155.472,51.116L156.642,51.18L157.374,51.532L158.447,53.29L158.301,54.152L158.349,54.471L158.496,55.077L158.447,55.747L158.739,56.193L159.227,56.257L159.91,56.098L160.593,55.843L161.861,55.109L162.202,54.982L164.299,55.843L165.225,56.384L165.567,57.021L166.006,57.626L166.64,57.722L167.517,57.117L168.932,56.48L171.272,57.053L173.906,57.881L175.028,57.976L175.076,57.563L175.271,56.99L175.71,56.735L176.344,56.639L177.271,56.353L178.295,55.843L179.319,55.651L180.441,56.002L181.806,56.321L182.635,56.321L182.976,57.467L183.659,57.913L183.903,58.898L182.733,59.439L182.001,59.502L181.806,61.217L182.099,61.724L182.781,62.168L182.976,62.675L183.123,65.207L181.757,66.724L179.807,68.428L170.395,73.87L168.151,76.503L167.322,77.097L160.349,78.755L155.423,80.535L153.083,81.159L150.157,84.212L148.791,85.455L149.913,85.797L151.181,87.256L150.742,87.908L148.889,88.9L148.06,89.209L147.621,89.055L147.182,89.178L144.061,94.433L141.232,98.221L139.672,99.849L138.111,102.273L134.697,108.569L134.649,110.366L136.356,116.56L137.282,118.194L138.648,119.555L141.232,120.702L141.817,121.849L140.94,122.934L138.404,124.861L133.966,127.445L132.064,129.485L131.674,131.462L130.357,132.359L129.87,135.107L129.089,136.926L128.894,137.522L128.065,138.921L127.968,139.902L129.333,141.299L128.65,141.892L127.968,142.16L126.407,142.308L121.14,142.486L116.898,145.449L114.752,148.08L112.85,152.945L110.509,155.825L109.485,156.353L107.876,155.091L105.876,154.885L103.926,155.326L102.95,156.295L101.341,156.852L99.781,156.383L96.464,156.119L94.953,156.177L92.612,156.97L90.612,156.442L87.248,156.177L79.933,156.794L79.055,157.116L78.128,158.318L75.787,160.368L72.276,160.456L69.058,161.771L68.277,162.619L66.912,164.924L66.473,166.614L66.229,166.643L65.888,166.235L65.351,166.352L65.107,167.662L63.888,168.243L62.913,168.447L60.426,167.4L58.378,165.827L57.305,165.74L55.549,163.29L54.769,161.713L54.232,160.046L54.33,159.402L54.184,158.846L52.623,158.172L52.233,156.618L53.403,154.621L54.33,153.739L54.915,153.504L53.501,153.592L52.477,154.885L51.16,152.798L45.845,148.73L46.186,147.815L46.137,147.283L45.259,148.376L44.625,148.671L41.895,148.494L38.773,148.996L37.944,144.739L37.554,143.109L37.457,142.071L38.286,139.635L39.164,138.624L40.334,136.569L41.797,134.839L43.309,134.451L43.991,134.182L44.528,132.868L44.869,131.731L44.625,131.611L42.87,131.851L39.651,127.085L39.749,126.304L40.139,125.162L40.432,123.747L40.48,122.602L41.309,121.638L42.577,120.672L43.65,119.283L44.187,117.892L44.333,116.651L43.699,115.772L41.943,115.287L40.139,111.735L39.749,109.513L39.359,109.27L38.237,108.264L37.164,106.372L37.018,106.066L38.139,105.73L42.675,105.7L43.65,105.302L43.796,105.15L44.625,103.651L45.503,101.2L45.698,99.696L45.406,99.082L43.894,97.575L43.845,97.114L44.089,96.406L44.967,95.636L46.186,94.773L46.869,94.001L46.722,93.415L46.332,92.798L46.284,92.241L46.527,91.531L46.576,89.086L46.771,88.466L46.527,86.263L46.235,84.46L45.259,82.125L45.454,81.596L45.893,81.159L47.308,80.348L48.478,78.411L50.185,76.816L52.379,75.532L53.891,74.089L54.525,72.99L54.964,72.676L54.818,72.174L54.525,71.419L53.647,70.696L52.526,70.286L51.258,70.286L50.477,70.16L50.282,69.562L50.331,68.018L50.282,66.471L50.039,65.776L49.453,65.239L48.283,65.397L47.308,64.954L46.527,64.859L46.088,65.176L43.894,65.081L42.967,64.828L42.285,64.543L41.895,64.701L41.651,65.018L41.602,65.492L41.456,66.092L40.627,66.661L38.822,67.229L37.359,67.166L35.994,66.787L35.555,66.471L34.921,66.219L32.141,66.534L31.8,66.313L30.873,66.882L29.459,67.576L28.679,67.608L28.386,67.481L28.289,67.166L27.703,66.092L27.85,65.523L28.971,63.847L28.874,63.467L28.386,62.929L27.996,62.136L27.85,61.756L27.118,61.693L26.387,62.105L23.461,62.929L22.778,63.214L21.51,64.037L20.193,65.271L19.218,65.523L18.828,65.144L18.73,62.263L20.291,60.36L21.364,59.185L20.876,58.962L19.706,58.994L19.754,58.072L20.34,57.658L20.876,56.671L20.242,56.225L19.754,55.588L19.754,53.897L19.901,53.194L19.754,52.459L17.365,53.482L16.731,53.322L16.731,52.043L18.048,50.123L18.194,49.546L16.633,49.258L15.463,48.296L14.78,47.461L14,46.24L14,45.147L14.78,42.603L15.902,41.828L16.877,41.377L18.925,39.6L21.705,39.923L23.461,39.567L25.021,38.662L25.948,38.435L27.362,37.658L27.313,36.589L26.826,35.778L27.265,35.032L28.874,34.09L30.678,32.887L32.726,32.66L34.823,31.553L36.238,32.269L37.457,32.041L38.871,32.855L40.724,34.74L43.455,35.519L45.65,34.902L49.453,34.805L51.404,35.032L54.818,34.577L56.768,34.74L59.889,33.798L62.377,34.967L67.107,35.519L69.935,36.492L77.836,38.079L80.713,38.112L84.712,37.205L86.418,36.524L87.979,36.945L90.271,36.167L91.393,36.297L92.807,37.431L97.879,38.921L99.195,37.658L100.171,37.367L103.779,38.144L107.437,39.729L109.339,39.826L112.119,39.406L114.362,38.37Z" fill="#c6f432" stroke="#c6f432" stroke-width="0.6" stroke-linejoin="round"/></svg>
