<svg xmlns="http://www.w3.org/2000/svg" viewBox="0 0 200 200"><rect width="200" height="200" rx="16" fill="#161618"/><path d="M104.856,162.749L104.195,163.364L102.015,163.979L101.09,164.619L99.438,166.05L99.141,166.178L96.664,165.821L94.814,163.979L93.658,163.21L93.162,163.108L92.667,163.339L91.577,163.569L90.487,163.544L91.048,162.672L91.808,162.184L90.123,161.85L89.628,161.593L89.099,161.002L87.778,160.899L87.15,161.053L86.06,161.85L84.375,162.697L82.327,161.516L81.931,161.002L81.931,159.998L81.634,159.199L81.072,158.941L81.799,157.908L82.658,157.21L84.574,156.511L87.514,154.903L89.132,154.202L90.652,153.005L91.279,152.276L91.742,151.259L92.171,150.031L92.832,149.01L92.204,148.774L91.907,148.014L92.006,147.253L92.27,146.57L92.039,145.702L91.577,144.806L91.61,144.12L91.709,143.355L90.553,143.407L89.363,143.645L88.306,144.173L87.282,144.885L86.39,145.017L86.39,144.437L86.787,143.724L87.811,142.72L88.934,141.874L89.33,141.211L89.628,140.469L90.189,139.858L91.643,138.715L94.384,137.437L94.814,137.357L95.904,137.517L96.961,137.331L97.886,136.85L98.844,136.744L100.925,138.103L100.297,136.023L101.222,135.542L102.577,137.41L103.072,137.597L104.129,137.331L103.7,137.011L103.237,136.984L102.61,136.717L102.114,136.103L101.222,134.204L101.288,133.078L101.85,131.896L102.511,130.793L101.982,130.577L101.52,130.173L101.42,129.067L101.586,128.122L102.742,127.256L103.072,125.955L103.237,124.515L103.039,123.863L101.883,123.971L101.321,124.243L100.826,124.679L100.297,124.651L98.877,123.046L98.051,121.845L96.598,119.301L96.399,117.765L97.556,114.459L99.372,112.329L101.486,111.581L101.09,111.442L97.853,111.414L96.763,111.692L95.772,112.551L95.21,112.828L94.649,112.911L94.087,113.354L93.592,113.962L93.03,114.349L91.94,114.238L91.411,114.376L91.048,114.017L90.751,113.437L90.321,113.298L89.859,113.464L88.901,114.238L87.91,114.708L86.721,114.211L85.135,113.298L84.838,113.63L84.475,114.487L84.276,115.783L83.186,114.653L82.228,113.105L81.898,112.163L81.898,111.081L82.393,110.637L82.955,111.026L83.781,108.439L85.432,105.057L86.027,104.075L86.423,102.783L86.357,101.91L85.994,101.206L84.475,99.569L84.475,98.21L84.64,96.707L85.069,95.798L85.234,95.627L87.282,95.656L86.49,95.172L84.904,93.804L84.937,93.319L85.3,92.034L85.135,92.177L84.805,92.748L84.144,94.175L83.748,94.517L82.625,94.859L82.426,95.542L82.228,95.741L81.667,95.798L81.502,96.452L81.369,96.508L81.204,95.798L81.204,94.631L81.435,93.548L81.865,92.72L83.484,90.802L82.691,91.404L80.874,93.177L79.949,94.318L79.718,94.717L79.619,95.058L79.619,95.428L80.048,97.473L79.916,98.409L78.363,104.58L78.066,105.197L77.802,105.505L77.538,105.589L76.778,105.477L76.414,105.001L76.414,104.496L76.58,103.71L77.207,100.783L77.505,99.964L77.934,99.201L78.826,97.87L78.826,97.785L78.198,98.04L77.934,97.955L77.769,97.7L77.868,93.747L78.363,92.434L78.562,90.516L78.991,88.879L79.487,87.671L79.883,86.143L80.444,85.449L80.61,84.408L81.237,83.278L81.733,82.087L81.469,82.204L78.297,85.276L77.472,85.854L76.381,85.709L75.523,85.362L74.862,84.61L74.565,83.22L73.772,83.191L73.078,82.93L73.078,82.755L73.97,81.971L75.423,81.71L76.778,80.487L75.556,79.642L75.655,79.379L76.712,78.678L78.033,76.278L78.33,74.075L77.67,73.044L77.438,72.365L76.183,71.597L75.952,70.622L76.117,70.089L76.514,69.555L77.141,69.14L78.132,68.725L77.24,68.309L76.91,67.804L76.646,67.09L76.646,66.643L77.108,64.764L77.372,63.987L77.901,62.999L80.279,63.059L80.544,62.609L80.808,62.579L82.03,62.999L81.832,62.549L79.85,60.176L79.685,59.725L80.246,58.458L80.279,57.885L80.213,57.25L80.378,56.796L81.006,56.554L82.922,56.584L83.384,56.372L83.186,55.736L82.724,54.917L82.658,54.249L82.757,53.641L82.79,52.393L82.856,51.874L83.318,51.05L83.682,50.806L84.177,50.653L85.234,50.928L85.631,51.264L86.093,52.057L86.423,51.966L87.745,51.142L88.141,51.02L88.67,51.996L90.916,51.203L93.922,50.867L95.739,50.347L97.655,50.164L99.438,49.582L101.321,49.858L101.387,50.194L101.288,50.653L100.826,51.935L100.892,53.367L100.793,53.823L100.562,54.34L99.868,55.342L98.051,56.766L94.715,60.026L92.733,61.649L92.468,62.429L92.336,63.508L93.493,63.717L93.955,64.076L93.691,64.615L91.94,66.494L91.411,68.22L92.766,68.16L93.856,67.833L96.069,66.762L98.117,65.958L99.108,65.928L101.057,66.554L101.486,66.584L102.312,66.286L103.138,66.256L108.754,66.435L110.306,66.077L111.363,66.524L112.222,67.625L113.048,69.644L113.015,69.97L112.519,70.888L111.595,72.041L110.802,73.633L110.571,74.487L110.438,75.427L110.174,76.278L108.622,80.312L107.069,82.523L106.408,84.118L105.55,85.362L104.757,86.143L103.898,86.662L101.387,87.239L100.694,87.613L99.868,88.304L98.976,88.649L100,88.592L101.024,88.218L102.874,88.074L105.021,89.397L104.823,90.458L103.964,91.318L102.015,91.461L100.198,93.319L99.372,93.89L98.514,94.175L97.423,94.09L95.441,93.605L94.583,93.091L95.375,93.919L96.234,94.375L101.387,95.428L101.685,95.314L103.303,94.204L105.483,94.204L109.646,96.224L110.835,97.785L112.553,99.992L113.477,100.867L114.171,101.657L114.568,102.811L115.393,106.68L116.285,110.415L117.507,114.459L118.036,115.563L118.763,116.334L122.396,118.149L123.189,118.726L124.61,120.452L125.964,122.282L127.219,123.672L128.573,124.787L127.913,125.385L127.45,126.307L127.814,127.553L128.342,128.743L129.432,130.658L130.423,132.729L130.06,132.407L129.697,132.245L129.168,132.272L128.673,132.192L127.748,131.546L126.856,130.739L125.105,131.062L124.147,130.928L123.288,130.928L124.907,131.385L126.658,131.439L130.522,134.9L131.844,136.93L132.604,139.619L132.075,140.84L131.249,141.609L130.489,142.509L129.763,143.513L131.91,144.99L132.372,144.938L132.868,144.727L133.297,144.226L134.09,143.011L134.486,142.588L135.808,142.429L136.931,142.509L138.054,142.773L139.045,142.694L141.027,143.223L142.018,143.698L144.561,145.807L145.09,146.964L145.354,148.46L145.387,150.109L144.958,151.624L144.462,152.979L144.165,154.721L143.967,155.37L143.67,155.837L142.315,157.235L141.423,157.778L141.06,157.546L140.664,157.572L140.631,157.908L141.027,158.605L141.06,159.456L140.267,160.075L139.441,160.333L138.12,159.998L136.237,161.156L137.591,161.747L137.856,162.389L137.525,163.492L136.7,164.005L135.742,164.21L134.784,164.261L133.991,164.542L133.231,165.054L134.189,164.773L134.85,165.028L135.279,165.948L135.643,166.229L137.525,166.612L138.649,166.612L140.895,166.382L141.952,166.408L142.348,166.561L142.348,167.326L142.183,169.234L141.886,169.615L138.946,171.188L138.318,172.302L138.153,172.959L136.435,172.858L135.643,173.54L134.222,174.02L133.165,174.524L132.108,175.154L131.216,175.331L127.483,174.575L125.204,174.65L122.132,175.306L121.339,175.18L120.183,174.575L118.961,174.146L117.574,173.97L116.351,173.389L117.111,174.499L115.426,175.557L114.667,175.759L113.874,175.734L112.222,176.036L110.703,175.885L110.934,176.639L111.33,177.292L111.033,177.568L110.67,177.644L107.796,177.142L107.366,177.242L107.036,177.694L105.979,177.468L104.955,176.689L103.865,176.161L102.742,175.91L101.817,176.01L98.117,177.217L97.357,178.446L96.994,180.174L96.465,181.697L95.574,182.869L94.55,183.043L93.559,182.221L91.709,181.323L91.048,180.699L90.85,180.674L90.652,180.899L89.925,181.173L89.165,181.173L88.009,181.423L85.961,182.146L85.135,182.645L83.384,184.014L83.021,184.387L82.393,185.752L81.402,186L80.511,185.132L79.487,184.809L78.429,185.132L77.769,185.578L77.472,185.206L77.438,184.436L78.231,183.491L80.345,182.794L82.162,180.949L83.087,179.824L83.417,179.198L83.88,178.797L84.441,178.647L84.739,177.945L87.282,175.129L87.514,174.499L87.646,173.338L87.844,172.226L89.925,171.492L90.916,169.133L91.18,168.955L94.087,168.522L96.234,168.548L98.381,169.006L99.471,169.056L100.562,168.878L101.42,168.242L102.907,165.948L103.733,164.926L104.691,164.005L105.583,162.954L107.036,161.002L106.045,161.67ZM117.342,15.362L117.54,16.656L118.003,16.332L118.73,17.592L119.093,17.592L119.688,17.076L119.556,18.237L118.961,21.484L118.763,22.029L118.664,23.021L118.531,23.212L118.333,25.159L117.937,25.828L117.574,27.354L117.441,27.513L116.913,26.909L117.441,24.554L117.64,23.181L117.507,22.477L117.21,21.836L116.417,21.804L115.757,22.093L115.625,21.708L115.592,21.195L115.426,21.035L114.534,21.067L114.303,20.939L114.105,20.457L114.072,20.072L114.898,19.782L115.625,19.911L116.748,19.139L116.054,16.623L115.129,16.397L114.931,16.138L115.096,15.718L115.592,15.491L116.384,14.195L116.847,14L117.408,14.032ZM76.348,88.966L72.682,89.885L71.427,89.799L71.294,89.339L71.559,89.052L72.583,88.764L73.012,86.547L71.46,85.507L71.36,85.218L71.493,84.726L71.658,84.524L72.616,84.002L73.012,83.887L73.342,83.944L74.036,84.553L74.796,85.796L75.787,85.998L76.481,86.547ZM72.484,54.614L71.294,57.643L70.865,57.734L70.436,58.489L69.213,59.333L70.303,59.333L70.601,59.634L70.601,60.206L70.402,60.567L68.982,61.949L68.024,62.489L67,63.927L66.472,63.927L65.943,64.854L65.514,65.242L65.282,65.242L64.985,65.063L64.357,64.166L65.514,63.268L65.646,62.789L66.439,62.249L66.372,62.099L65.084,61.379L64.589,60.868L64.655,60.628L65.249,60.056L64.952,59.996L64.754,59.694L64.424,59.574L64.291,59.273L64.258,58.549L64.324,57.764L64.721,57.431L64.853,57.069L65.018,56.978L65.58,57.159L66.174,57.764L66.835,57.522L67.628,57.643L67.661,57.492L67.066,56.009L67.165,55.706L67.496,55.342L69.312,54.279L71.559,52.454L72.12,52.179L72.285,52.423L72.517,53.367ZM72.979,69.437L72.946,70.207L72.781,71.095L73.012,72.041L73.045,72.69L73.442,72.926L73.673,73.221L75.39,73.574L77.009,73.456L77.306,73.751L77.339,74.192L77.075,74.663L76.183,75.545L75.093,76.952L74.763,77.245L74.399,77.275L74.168,77.128L73.97,74.604L72.814,74.928L71.856,74.898L71.327,74.604L70.964,74.016L70.237,72.483L68.09,71.863L67.496,71.036L67.297,70.503L67.396,70.237L67.826,69.615L68.387,69.822L68.751,69.703L68.949,69.407L68.949,69.17L68.652,68.636L68.652,68.457L70.832,67.774L70.997,66.673L71.493,66.584L72.021,66.941L72.781,68.071ZM72.285,125.249L71.526,125.168L70.964,125.439L70.601,125.684L70.27,125.656L69.279,125.738L68.321,125.738L68.189,125.331L68.354,124.08L68.156,123.754L67.264,123.59L66.934,123.291L66.405,122.446L66.306,122.036L66.24,121.49L65.712,120.78L65.051,120.26L64.655,120.233L63.895,121.081L63.267,121.927L63.499,122.337L63.697,122.882L63.333,123.291L62.309,124.216L62.144,124.57L61.847,124.76L61.351,124.488L60.129,124.543L59.568,124.407L58.907,123.726L57.288,123.264L56.991,122.2L56.694,122.009L54.844,120.15L54.613,119.521L54.844,119.164L55.538,118.588L57.85,117.655L58.213,117.297L58.279,116.967L57.586,116.582L56.991,116.169L56.793,115.894L56.76,115.646L57.123,115.342L57.817,115.315L58.345,115.453L58.775,115.177L59.568,114.901L60.063,114.542L60.526,113.63L60.988,112.8L61.021,112.357L61.451,110.776L61.649,110.387L63.102,109.358L63.466,109.942L64.192,110.081L64.853,109.553L65.613,107.909L66.141,107.825L66.736,107.937L67.892,107.741L69.94,106.987L70.865,106.959L72.153,107.35L73.111,107.35L73.97,108.522L74.433,110.359L75.49,112.191L76.91,113.768L76.943,114.708L76.448,115.232L75.39,115.866L75.423,116.555L76.084,116.197L76.679,116.059L78.132,116.197L78.628,116.912L78.958,117.929L79.156,118.78L79.024,119.712L78.661,119.411L78.264,118.588L77.835,118.204L77.306,118.012L77.538,119.137L77.438,120.67L77.67,120.807L78.363,120.834L77.901,122.364L76.976,122.8L75.886,122.964L75.622,123.509L75.423,124.216L74.862,125.249L74.135,125.846L73.21,125.738Z" fill="#c6f432" stroke="#c6f432" stroke-width="0.6" stroke-linejoin="round"/></svg>
